<svg>
  <path transform="matrix(6,0,0,6,0,0)" d="m 29.375,1.25 -1.123,0 C 28.281,1.157 28.311,1.064 28.311,0.961 28.311,0.431 27.879,0 27.348,0 c -0.531,0 -0.961,0.431 -0.961,0.961 0,0.104 0.028,0.196 0.059,0.289 l -3.68,0 C 22.795,1.157 22.825,1.064 22.825,0.961 22.825,0.431 22.393,0 21.862,0 21.332,0 20.9,0.431 20.9,0.961 c 0,0.104 0.029,0.196 0.06,0.289 l -3.681,0 C 17.308,1.157 17.337,1.064 17.337,0.961 17.337,0.431 16.907,0 16.376,0 c -0.531,0 -0.961,0.431 -0.961,0.961 0,0.104 0.028,0.196 0.058,0.289 l -3.681,0 C 11.821,1.157 11.851,1.064 11.851,0.961 11.851,0.431 11.42,0 10.89,0 10.359,0 9.928,0.431 9.928,0.961 c 0,0.104 0.028,0.196 0.058,0.289 l -3.68,0 C 6.336,1.157 6.365,1.064 6.365,0.961 6.365,0.431 5.935,0 5.404,0 4.873,0 4.442,0.431 4.442,0.961 4.442,1.065 4.47,1.157 4.5,1.25 l -1.125,0 C 1.857,1.25 0.625,2.483 0.625,4 l 0,26 c 0,1.518 1.232,2.75 2.75,2.75 l 22.895,0 5.855,-5.855 0,-22.895 c 0,-1.517 -1.232,-2.75 -2.75,-2.75 z m 1.25,25.023 -0.311,0.311 -2.355,0 c -1.102,0 -2,0.898 -2,2 l 0,2.355 -0.311,0.311 -22.273,0 c -0.689,0 -1.25,-0.561 -1.25,-1.25 l 0,-21 28.5,0 z" />

  <text y="40" transform="translate(100)">
    <tspan x="0" text-anchor="middle" style="fill:#ffffff;font-size:30px;font-family:droid Sans" id="agenda-mois">MOIS</tspan>
  </text>
  <text y="155" transform="translate(100)">
    <tspan x="0" text-anchor="middle" id="agenda-jour" style="font-size:122px;font-family:Droid Sans">JOUR</tspan>
  </text>
</svg>

